<?xml version="1.0" standalone="no"?>
<!DOCTYPE svg PUBLIC "-//W3C//DTD SVG 20010904//EN"
 "http://www.w3.org/TR/2001/REC-SVG-20010904/DTD/svg10.dtd">
<svg version="1.0" xmlns="http://www.w3.org/2000/svg"
 width="700.000000pt" height="700.000000pt" viewBox="0 0 700.000000 700.000000"
 preserveAspectRatio="xMidYMid meet">
<metadata>
Created by potrace 1.14, written by Peter Selinger 2001-2017
</metadata>
<g transform="translate(0.000000,700.000000) scale(0.100000,-0.100000)"
fill="#000000" stroke="none">
<path d="M3337 4934 c-1 -1 -37 -4 -81 -7 -229 -18 -303 -159 -200 -382 26
-56 24 -60 -42 -69 -57 -9 -156 -38 -239 -71 -377 -149 -746 -446 -895 -720
-55 -101 -51 -98 -91 -64 -98 85 -202 111 -277 69 -78 -44 -141 -153 -189
-328 -22 -81 -27 -122 -29 -252 -5 -227 25 -334 118 -429 49 -50 93 -74 183
-102 63 -19 74 -31 80 -79 1 -8 5 -42 9 -75 6 -53 27 -180 40 -242 3 -13 0
-26 -6 -29 -6 -4 -157 -8 -337 -10 -768 -8 -781 -9 -787 -48 -3 -21 7 -22 151
-26 169 -5 5304 -4 5498 0 155 3 179 10 154 44 -15 20 -61 23 -420 29 -106 2
-192 8 -197 13 -19 19 -56 243 -75 449 -3 33 -8 74 -10 91 -4 31 -11 137 -20
317 -6 132 -13 177 -42 277 -54 191 -160 294 -305 299 -40 1 -85 11 -123 27
-82 34 -100 38 -180 38 -44 0 -88 -7 -117 -18 -51 -20 -55 -18 -90 32 -81 117
-462 440 -681 576 -67 42 -78 52 -72 70 43 141 47 199 20 281 -32 93 -102 170
-208 230 -61 33 -167 73 -215 81 -20 3 -40 8 -44 10 -11 7 -273 24 -281 18z
m168 -536 c317 -57 562 -182 925 -472 69 -56 168 -143 220 -195 l95 -94 -65
-21 c-91 -31 -122 -49 -183 -107 -28 -27 -78 -66 -109 -87 -94 -61 -132 -139
-130 -272 0 -102 23 -206 87 -395 30 -89 56 -172 59 -185 22 -107 35 -183 41
-230 8 -62 9 -176 1 -188 -3 -5 -596 -8 -1318 -8 l-1313 1 -22 120 c-12 66
-25 149 -28 185 -4 36 -9 79 -12 95 -6 38 -5 363 2 430 52 541 252 874 698
1169 188 124 438 230 592 253 22 3 63 9 90 13 83 13 264 7 370 -12z m1594
-974 c14 -32 14 -66 0 -98 -14 -30 -36 -36 -79 -22 -78 25 -78 134 0 158 25 8
67 -12 79 -38z m-318 -33 c49 -50 33 -126 -32 -146 -29 -9 -71 23 -83 63 -15
53 21 109 72 111 8 1 27 -12 43 -28z m588 -77 c70 -59 11 -180 -68 -140 -55
29 -65 103 -19 146 29 27 50 25 87 -6z m-818 -133 c17 -14 23 -29 23 -66 1
-40 -3 -50 -26 -68 -73 -55 -160 62 -96 130 26 28 67 30 99 4z m576 -66 c106
-31 193 -114 193 -182 0 -66 -57 -115 -183 -158 -122 -41 -283 -52 -373 -27
-47 14 -91 53 -101 89 -20 84 117 247 237 281 53 15 171 14 227 -3z"/>
<path d="M3440 3914 c-64 -17 -163 -71 -206 -111 -54 -49 -67 -80 -61 -139 9
-92 79 -165 193 -204 105 -36 172 -80 285 -186 73 -68 122 -89 204 -88 152 1
254 67 257 166 6 173 -159 455 -302 517 -123 53 -274 72 -370 45z"/>
<path d="M2445 3241 c-114 -66 -192 -164 -225 -285 -39 -138 -33 -261 17 -360
50 -100 174 -232 283 -301 36 -24 56 -29 105 -30 51 0 66 4 97 29 66 50 114
146 125 247 4 49 1 62 -27 115 -44 83 -79 190 -85 265 -2 35 -7 91 -9 125 -7
84 -31 138 -84 184 -40 36 -51 40 -96 40 -38 0 -64 -8 -101 -29z"/>
<path d="M3354 3146 c-163 -60 -386 -270 -386 -362 0 -32 45 -80 89 -95 42
-13 127 -4 205 22 32 10 62 19 67 19 5 0 27 -29 50 -65 l41 -65 -35 -65 c-107
-202 -209 -269 -353 -231 -60 16 -59 6 1 -26 32 -17 59 -22 112 -22 85 0 137
24 203 93 48 50 125 163 136 198 7 21 55 43 95 43 28 0 157 43 217 71 136 66
196 151 176 248 l-8 35 -16 -61 c-19 -65 -54 -105 -126 -142 -41 -21 -215 -67
-291 -77 l-49 -6 -27 41 c-53 84 -53 82 3 154 80 105 107 206 71 267 -34 54
-80 62 -175 26z"/>
</g>
</svg>
