<?xml version="1.0" standalone="no"?>
<!DOCTYPE svg PUBLIC "-//W3C//DTD SVG 20010904//EN"
 "http://www.w3.org/TR/2001/REC-SVG-20010904/DTD/svg10.dtd">
<svg version="1.0" xmlns="http://www.w3.org/2000/svg"
 width="260.000000pt" height="260.000000pt" viewBox="0 0 260.000000 260.000000"
 preserveAspectRatio="xMidYMid meet">
<metadata>
Created by potrace 1.14, written by Peter Selinger 2001-2017
</metadata>
<g transform="translate(0.000000,260.000000) scale(0.100000,-0.100000)"
fill="#000000" stroke="none">
<path d="M934 2241 c-82 -37 -104 -102 -64 -190 11 -24 19 -45 18 -46 -2 -2
-37 -26 -79 -54 -174 -116 -311 -313 -360 -517 -18 -75 -20 -108 -16 -209 7
-142 23 -208 82 -332 108 -223 310 -388 550 -448 98 -25 296 -26 390 -1 151
39 316 136 417 244 l47 50 33 -23 c46 -31 104 -47 158 -43 l45 3 -54 57 c-29
32 -69 63 -87 70 -42 15 -43 25 -2 43 31 13 33 12 44 -13 22 -52 72 -80 162
-92 28 -3 52 -4 52 -2 0 15 -28 47 -79 90 -40 33 -56 53 -50 59 7 7 7 23 1 46
-8 28 -7 39 4 47 14 13 54 111 54 135 0 19 -41 4 -89 -33 -29 -22 -33 -23 -26
-6 4 10 10 75 13 143 5 133 -7 231 -38 314 l-18 47 29 15 c57 30 74 107 43
198 -37 109 -137 140 -219 67 -19 -18 -22 -17 -105 46 -47 35 -134 88 -195
119 -117 58 -185 75 -306 75 -65 0 -67 0 -72 29 -7 35 -59 96 -98 117 -39 20
-135 18 -185 -5z m521 -216 c74 -19 210 -86 286 -142 86 -63 184 -183 234
-288 72 -150 96 -291 75 -440 -11 -80 -14 -86 -24 -61 l-11 27 -37 -31 c-43
-35 -72 -104 -66 -154 3 -32 1 -37 -26 -46 -16 -5 -30 -9 -31 -8 -1 2 -9 25
-19 51 -25 67 -100 138 -191 182 -83 40 -96 42 -530 65 -110 6 -222 15 -249
20 -108 22 -218 94 -255 169 -22 44 -38 107 -47 187 -6 56 -4 67 22 115 40 74
174 207 260 257 187 111 416 147 609 97z m412 -1293 l-26 -25 9 39 c5 21 10
43 10 49 0 5 7 -1 16 -14 16 -22 15 -24 -9 -49z"/>
<path d="M1235 1720 c-59 -9 -133 -48 -187 -100 -39 -38 -48 -53 -48 -81 0
-43 30 -75 84 -90 42 -12 73 -4 171 43 50 23 68 27 107 22 41 -6 49 -3 73 20
22 22 26 33 21 59 -17 85 -116 142 -221 127z"/>
<path d="M1705 1495 c-30 -29 -31 -40 -5 -105 11 -28 20 -63 20 -79 0 -45 33
-65 98 -62 52 3 83 132 47 201 -36 69 -114 92 -160 45z"/>
<path d="M1501 1386 c-12 -15 -1 -59 18 -71 18 -10 12 -40 -14 -80 -15 -20
-23 -40 -20 -43 12 -12 40 15 60 55 14 30 28 44 48 48 54 13 47 57 -14 87 -42
21 -63 22 -78 4z"/>
</g>
</svg>
