<svg aria-hidden="true" style="position: absolute; width: 0; height: 0; overflow: hidden;" version="1.1" xmlns="http://www.w3.org/2000/svg" xmlns:xlink="http://www.w3.org/1999/xlink">
<defs>
<symbol id="icon-player" viewBox="0 0 30 32">
<path d="M29.538 16l-27.692 15.988v-31.976l27.692 15.988z"></path>
</symbol>
<symbol id="icon-basket" viewBox="0 0 32 32">
<path d="M16 2.667c1.415 0 2.771 0.562 3.771 1.562s1.562 2.357 1.562 3.771h2.713c0.691-0 1.355 0.268 1.852 0.748s0.789 1.134 0.813 1.824l0.571 16c0.013 0.358-0.047 0.715-0.175 1.049s-0.322 0.639-0.571 0.897c-0.249 0.258-0.547 0.463-0.876 0.603s-0.684 0.212-1.042 0.212h-17.237c-0.358-0-0.712-0.072-1.042-0.212s-0.628-0.345-0.876-0.603-0.443-0.563-0.571-0.897c-0.128-0.334-0.188-0.691-0.175-1.049l0.571-16c0.025-0.69 0.316-1.344 0.813-1.824s1.161-0.748 1.852-0.748h2.713c0-1.415 0.562-2.771 1.562-3.771s2.357-1.562 3.771-1.562zM10.667 10.667h-2.713l-0.572 16h17.237l-0.572-16h-2.713v1.333c-0 0.34-0.131 0.667-0.364 0.914s-0.552 0.396-0.891 0.416c-0.339 0.020-0.673-0.090-0.934-0.309s-0.428-0.528-0.468-0.865l-0.009-0.156v-1.333h-5.333v1.333c-0 0.34-0.13 0.667-0.364 0.914s-0.552 0.396-0.891 0.416c-0.339 0.020-0.673-0.090-0.934-0.309s-0.428-0.528-0.468-0.865l-0.009-0.156v-1.333zM16 5.333c-0.673-0-1.321 0.254-1.814 0.711s-0.796 1.084-0.846 1.755l-0.007 0.2h5.333c0-0.707-0.281-1.386-0.781-1.886s-1.178-0.781-1.886-0.781z"></path>
</symbol>
<symbol id="icon-youtube" viewBox="0 0 32 32">
<path d="M18.672 15.722l-3.743-1.747c-0.327-0.152-0.595 0.018-0.595 0.38v3.29c0 0.362 0.268 0.532 0.595 0.38l3.742-1.747c0.328-0.153 0.328-0.403 0.002-0.557zM16 0c-8.837 0-16 7.163-16 16s7.163 16 16 16c8.837 0 16-7.163 16-16s-7.163-16-16-16zM16 22.5c-8.19 0-8.333-0.738-8.333-6.5s0.143-6.5 8.333-6.5 8.333 0.738 8.333 6.5c0 5.762-0.143 6.5-8.333 6.5z"></path>
</symbol>
<symbol id="icon-facebook" viewBox="0 0 32 32">
<path d="M16 0c-8.837 0-16 7.207-16 16.097 0 8.034 5.851 14.694 13.501 15.903v-11.25h-4.064v-4.652h4.064v-3.546c0-4.034 2.387-6.262 6.043-6.262 1.75 0 3.581 0.314 3.581 0.314v3.96h-2.016c-1.989 0-2.608 1.241-2.608 2.514v3.020h4.437l-0.709 4.652h-3.728v11.25c7.648-1.207 13.499-7.87 13.499-15.903 0-8.891-7.163-16.097-16-16.097z"></path>
</symbol>
<symbol id="icon-link" viewBox="0 0 32 32">
<path d="M16 0c-8.889 0-16 7.111-16 16s7.111 16 16 16c8.889 0 16-7.111 16-16s-7.111-16-16-16zM16 12.444c1.956 0 3.556 1.6 3.556 3.556s-1.6 3.556-3.556 3.556c-1.956 0-3.556-1.6-3.556-3.556s1.6-3.556 3.556-3.556zM20.978 8.889c0-1.244 1.067-2.133 2.133-2.133s2.133 1.067 2.133 2.133c0 1.067-0.889 2.133-2.133 2.133s-2.133-0.889-2.133-2.133zM16 28.444c-6.933 0-12.444-5.511-12.444-12.444h5.333c0 3.911 3.2 7.111 7.111 7.111s7.111-3.2 7.111-7.111h5.333c0 6.933-5.511 12.444-12.444 12.444z"></path>
</symbol>
</defs>
</svg>
